PathFileType	4	(X/Y/Z)	/Users/itak/Documents/Research/Walk-IL/dataset/trc/00490_00167.trc
DataRate	CameraRate	NumFrames	NumMarkers	Units	OrigDataRate	OrigDataStartFrame	OrigNumFrames
100.000000	100.000000	4	53	mm	100.000000	338	542
Frame#	Time	RPSI			LPSI			L3			STRN			T10			C7			CLAV			RBAK			LBAK			LSHO			LUPA			LAEL			LAOL			LWTS			LWPS			LFRA			LIFD			LHPS			LHTS			RSHO			RUPA			RAEL			RAOL			RWTS			RWPS			RFRA			RIFD			RHTS			RHPS			RBHD			LFHD			RFHD			LBHD			LHIP			RHIP			RASI			LASI			LKNE			LTHI			LANK			LTIP			LTOE			LMT1			LMT5			LHEE			RKNE			RTHI			RANK			RTIP			RTOE			RMT1			RMT5			RHEE			
		X1	Y1	Z1	X2	Y2	Z2	X3	Y3	Z3	X4	Y4	Z4	X5	Y5	Z5	X6	Y6	Z6	X7	Y7	Z7	X8	Y8	Z8	X9	Y9	Z9	X10	Y10	Z10	X11	Y11	Z11	X12	Y12	Z12	X13	Y13	Z13	X14	Y14	Z14	X15	Y15	Z15	X16	Y16	Z16	X17	Y17	Z17	X18	Y18	Z18	X19	Y19	Z19	X20	Y20	Z20	X21	Y21	Z21	X22	Y22	Z22	X23	Y23	Z23	X24	Y24	Z24	X25	Y25	Z25	X26	Y26	Z26	X27	Y27	Z27	X28	Y28	Z28	X29	Y29	Z29	X30	Y30	Z30	X31	Y31	Z31	X32	Y32	Z32	X33	Y33	Z33	X34	Y34	Z34	X35	Y35	Z35	X36	Y36	Z36	X37	Y37	Z37	X38	Y38	Z38	X39	Y39	Z39	X40	Y40	Z40	X41	Y41	Z41	X42	Y42	Z42	X43	Y43	Z43	X44	Y44	Z44	X45	Y45	Z45	X46	Y46	Z46	X47	Y47	Z47	X48	Y48	Z48	X49	Y49	Z49	X50	Y50	Z50	X51	Y51	Z51	X52	Y52	Z52	X53	Y53	Z53	

339	3.38	-323.1902465820312	931.6893310546875	246.8212127685547	-347.14697265625	906.5848388671875	110.1078109741211	-322.0243530273438	1017.855895996094	198.4833374023438	-73.81858062744141	1221.521362304688	90.2154541015625	-339.6322326660156	1142.632202148438	197.5589599609375	-285.2170715332031	1412.880126953125	165.4716644287109	-117.7956695556641	1331.448364257812	86.33608245849609	-300.3956298828125	1303.3134765625	286.6047973632812	-352.4291076660156	1352.708251953125	93.28107452392578	-292.5707092285156	1365.23876953125	-22.60705757141113	-342.2188415527344	1237.265747070312	-92.40039825439453	-348.5877685546875	1021.883605957031	-106.2716903686523	-384.8938598632812	1021.566772460938	-7.483858585357666	-289.1123352050781	805.90576171875	-80.27194213867188	-359.3336791992188	802.0296020507812	-108.4456405639648	-347.9294738769531	931.834716796875	-114.866455078125	-335.4548950195312	643.5526733398438	-62.33924865722656	-369.9680480957031	725.0941772460938	-102.8202056884766	-300.3194580078125	716.0927734375	-82.17494964599609	-158.8664703369141	1400.810546875	285.0604248046875	-141.04248046875	1352.952758789062	367.1744079589844	-61.73596572875977	1098.772094726562	476.6307983398438	-117.7879104614258	1061.262451171875	465.1071166992188	76.64567565917969	921.8859252929688	420.2897644042969	44.39216995239258	904.5104370117188	500.156982421875	-36.30011367797852	1046.587036132812	491.809326171875	140.9241638183594	782.0902709960938	446.2044067382812	131.6320343017578	841.431640625	437.5148315429688	91.82035064697266	828.7747192382812	502.1940307617188	-165.8418273925781	1624.770629882812	173.2413024902344	-204.9939422607422	1618.510986328125	-30.31907272338867	-106.4382553100586	1644.762939453125	50.89979553222656	-311.9027099609375	1591.26416015625	77.75200653076172	-215.7548370361328	818.4276123046875	-26.26571464538574	-192.9037475585938	845.3287963867188	377.4146118164062	-93.20481872558594	876.9292602539062	294.2684936523438	-117.2763900756836	868.6065673828125	40.28570938110352	-38.15515518188477	435.9416198730469	-25.28171730041504	-83.95954132080078	585.2708129882812	-49.123291015625	-45.98188400268555	32.69480895996094	79.98703002929688	-34.75461196899414	280.6861877441406	-12.76088333129883	156.4358825683594	48.86056900024414	-48.99676895141602	130.1028900146484	47.59796905517578	26.58778762817383	42.35657501220703	47.69922637939453	-41.70588684082031	-25.46000862121582	40.17889404296875	154.2976226806641	-241.2911834716797	461.9898986816406	378.894775390625	-166.0961608886719	710.959228515625	384.5062255859375	-514.9762573242188	100.4181823730469	408.7478942871094	-315.6290893554688	337.1246643066406	401.7484741210938	-313.5019836425781	42.08517074584961	389.679443359375	-362.6876220703125	54.2958984375	345.0854797363281	-405.0000305175781	42.82081604003906	446.4241027832031	-564.2928466796875	133.0248413085938	354.0277099609375	
340	3.39	-313.1841125488281	931.794189453125	243.8735656738281	-339.2404174804688	906.9459838867188	107.5776977539062	-313.1413879394531	1018.206481933594	195.2575988769531	-66.70602416992188	1222.347290039062	83.15460205078125	-331.2393798828125	1142.82666015625	194.5681304931641	-277.8092651367188	1413.04541015625	161.1987609863281	-111.1376266479492	1332.107666015625	79.92364501953125	-291.1159362792969	1303.608764648438	282.5210571289062	-345.744140625	1352.57958984375	89.91455078125	-287.4606628417969	1365.12939453125	-26.70206260681152	-337.4138793945312	1236.804565429688	-95.60730743408203	-342.9993591308594	1021.206481933594	-108.5041580200195	-378.1797180175781	1021.041259765625	-9.577032089233398	-281.1100769042969	805.6920776367188	-82.17991638183594	-351.2206115722656	801.2262573242188	-110.1267013549805	-341.3537292480469	931.13623046875	-117.0206604003906	-325.3636474609375	643.6902465820312	-63.36708450317383	-361.3323059082031	724.200927734375	-103.8990325927734	-291.5182800292969	715.75341796875	-83.40467071533203	-149.8829498291016	1401.48046875	279.1869812011719	-131.4393615722656	1353.554565429688	361.1134033203125	-54.0601806640625	1098.170288085938	469.66943359375	-110.6756057739258	1061.322143554688	458.401123046875	81.73750305175781	919.79736328125	411.0884094238281	50.45110702514648	902.5475463867188	491.3803100585938	-29.0462703704834	1045.624755859375	484.4308166503906	144.4279174804688	779.0223388671875	435.3552856445312	135.7762145996094	838.4818725585938	427.056396484375	96.86370086669922	826.0918579101562	492.3302917480469	-159.2652435302734	1625.326782226562	167.0991973876953	-200.8145904541016	1618.660522460938	-35.97943115234375	-101.4510040283203	1645.244018554688	43.97282409667969	-306.3988647460938	1591.218627929688	73.47423553466797	-209.9406585693359	818.6217651367188	-30.57743835449219	-180.9094848632812	845.6416015625	372.6428833007812	-82.88385772705078	877.4470825195312	287.6889343261719	-110.4030685424805	869.4219360351562	34.26462936401367	-31.18928718566895	435.9246520996094	-29.11742782592773	-77.09306335449219	585.4946899414062	-53.94667816162109	-45.33393478393555	33.2463264465332	79.42043304443359	-29.14311408996582	280.319580078125	-15.47656726837158	158.9591979980469	46.02581787109375	-48.42738723754883	131.5925140380859	46.22069931030273	27.19718360900879	44.41826629638672	47.35593414306641	-41.9329948425293	-24.99778175354004	40.72784805297852	153.9146423339844	-226.9108428955078	462.6557006835938	378.2774353027344	-153.4150390625	711.5194091796875	380.1454772949219	-510.0974731445312	106.9443969726562	412.4645385742188	-303.9121398925781	339.7687072753906	402.91796875	-313.6906127929688	42.21868133544922	389.9246826171875	-361.8248291015625	54.77720642089844	345.9574584960938	-402.8031616210938	43.73320770263672	447.6163940429688	-557.8500366210938	142.8675079345703	358.6008605957031	
341	3.4	-303.3543395996094	931.84228515625	240.6557769775391	-331.436767578125	907.3073120117188	104.6995849609375	-304.3314514160156	1018.635009765625	191.85986328125	-59.66996765136719	1223.236450195312	76.00508117675781	-322.8774719238281	1143.05615234375	191.5670318603516	-270.3885498046875	1413.254760742188	157.023681640625	-104.5579223632812	1332.83056640625	73.48630523681641	-281.7525939941406	1303.932861328125	278.5077819824219	-339.0462036132812	1352.498168945312	86.69298553466797	-282.4701843261719	1365.162719726562	-30.66324806213379	-332.7645874023438	1236.555908203125	-98.73316955566406	-337.5026550292969	1020.714782714844	-110.7986831665039	-371.439208984375	1020.608581542969	-11.7151575088501	-272.8568725585938	805.7962646484375	-84.51837921142578	-342.8543701171875	800.7113037109375	-112.1557006835938	-334.7546691894531	930.6572265625	-119.3386077880859	-314.8250732421875	643.9862060546875	-64.88227844238281	-352.3681335449219	723.5328979492188	-105.3510131835938	-282.221923828125	715.8074340820312	-85.25420379638672	-140.8318023681641	1402.174438476562	273.2857055664062	-121.7066955566406	1354.195068359375	354.9996948242188	-46.40549087524414	1097.53515625	462.58544921875	-103.5838470458984	1061.390747070312	451.5118103027344	86.58979034423828	917.5050659179688	401.7978210449219	56.31101608276367	900.4431762695312	482.5234680175781	-21.87738800048828	1044.610473632812	476.9481506347656	147.3112030029297	775.620849609375	424.3662414550781	139.4556884765625	835.2215576171875	416.4573059082031	101.4888610839844	823.1671752929688	482.3501586914062	-152.7062225341797	1625.9365234375	160.9514617919922	-196.8104095458984	1618.759033203125	-41.55673599243164	-96.55480194091797	1645.755493164062	37.03696060180664	-300.9292297363281	1591.19482421875	69.26860046386719	-204.1797943115234	818.7152099609375	-35.15718460083008	-168.9102935791016	845.91650390625	367.4647216796875	-72.71665191650391	877.9615478515625	280.7272338867188	-103.6786270141602	870.2149658203125	27.95028495788574	-24.58786010742188	435.7341918945312	-32.70121002197266	-70.35940551757812	585.4957885742188	-58.54738616943359	-44.83745574951172	33.71653747558594	78.96515655517578	-24.01445198059082	279.8467102050781	-17.92827033996582	161.0709991455078	43.69962692260742	-47.99149703979492	132.8179626464844	45.1806755065918	27.68206977844238	46.08015441894531	47.11403656005859	-42.12799072265625	-24.57418441772461	41.12322235107422	153.6403198242188	-211.5135192871094	463.3468322753906	377.7657470703125	-140.4837188720703	712.1549072265625	375.5821533203125	-504.1410217285156	113.9277801513672	416.5203247070312	-291.0471801757812	342.5043334960938	404.3255920410156	-313.7017822265625	42.2463264465332	390.2139587402344	-360.6387329101562	55.35182189941406	346.9293518066406	-400.0868530273438	44.83274078369141	448.9736633300781	-550.0447998046875	153.2245941162109	363.5906982421875	
342	3.41	-293.7815551757812	931.767822265625	237.1658325195312	-323.7811584472656	907.6448974609375	101.4460372924805	-295.6240234375	1019.104187011719	188.2710418701172	-52.73578643798828	1224.14208984375	68.81014251708984	-314.5336303710938	1143.302124023438	188.5151977539062	-262.9576110839844	1413.491455078125	152.9580688476562	-98.06220245361328	1333.58544921875	67.05776214599609	-272.3457336425781	1304.261840820312	274.5721130371094	-332.3493347167969	1352.454956054688	83.62123870849609	-277.5877685546875	1365.308837890625	-34.47684097290039	-328.266845703125	1236.48876953125	-101.7611312866211	-332.0921936035156	1020.377624511719	-113.1807098388672	-364.6771545410156	1020.23193359375	-13.91005039215088	-264.3652954101562	806.205810546875	-87.31324768066406	-334.2784118652344	800.452392578125	-114.5313186645508	-328.1429138183594	930.36572265625	-121.8307113647461	-303.9658203125	644.3410034179688	-66.88296508789062	-343.0962829589844	723.06982421875	-107.2005462646484	-272.4745483398438	716.2393798828125	-87.76214599609375	-131.7351226806641	1402.856323242188	267.3885498046875	-111.8712387084961	1354.821044921875	348.8653564453125	-38.72145843505859	1096.839233398438	455.3976440429688	-96.44740295410156	1061.429565429688	444.4734802246094	91.25777435302734	915.0048828125	392.4493408203125	62.03347396850586	898.1954345703125	473.621826171875	-14.73233032226562	1043.529052734375	469.3831787109375	149.6157836914062	771.8988037109375	413.2759704589844	142.7112274169922	831.65966796875	405.7514038085938	105.7520523071289	820.0082397460938	472.2932739257812	-146.1731872558594	1626.586547851562	154.8193969726562	-192.9935607910156	1618.781982421875	-47.02017211914062	-91.74953460693359	1646.27783203125	30.11821174621582	-295.4933776855469	1591.18115234375	65.15687561035156	-198.4081573486328	818.752685546875	-40.03812789916992	-156.994140625	846.12548828125	361.9346313476562	-62.72749710083008	878.46240234375	273.4796447753906	-97.12138366699219	870.9339599609375	21.41461181640625	-18.44446182250977	435.3551635742188	-36.03842544555664	-63.86030960083008	585.23779296875	-62.91908645629883	-44.46549987792969	34.11906433105469	78.62537384033203	-19.44098663330078	279.2631225585938	-20.12470436096191	162.7784729003906	41.89251708984375	-47.64469909667969	133.7863311767578	44.40009689331055	28.06374931335449	47.35952377319336	46.9471549987793	-42.26868057250977	-24.192138671875	41.38800811767578	153.4776611328125	-195.1282196044922	464.0694274902344	377.3009033203125	-127.3475341796875	712.857666015625	370.8539123535156	-496.8936462402344	121.3613891601562	420.9274597167969	-276.9822387695312	345.2772216796875	405.9088745117188	-313.3660888671875	42.07543182373047	390.5030212402344	-359.0124816894531	56.07067489624023	347.9996643066406	-396.6776428222656	46.15779876708984	450.4962158203125	-540.7428588867188	163.9984436035156	369.0242309570312	
